<?xml version="1.0" encoding="UTF-8"?>
<svg id="Capa_2" data-name="Capa 2" xmlns="http://www.w3.org/2000/svg" viewBox="0 0 347.9 120.46">
  <defs>
    <style>
      .cls-1 {
        fill: #4743ef;
      }
      .cls-2 {
        fill: #fff;
      }
    </style>
  </defs>
  <polygon class="cls-1" points="135.24 22.01 135.24 102.56 116.18 102.56 116.18 50.98 103.65 70.58 103.65 38.29 114.07 22.01 135.24 22.01"/>
  <path class="cls-1" d="M100.02,22.01v56.88c-1.12,2.03-2.57,3.86-4.28,5.41,0,0,0,.01-.01.01-3.74,3.39-8.69,5.46-14.13,5.46-.21,0-.42,0-.64-.01-3.06-.09-5.95-.83-8.54-2.09-3.78-1.84-6.92-4.78-9.02-8.4-1.79-3.1-2.82-6.69-2.82-10.52v-2.08h20.38v-14.84l-8.01,12.5h-14.72v5.19c0,3.94,1.44,8.22,3.79,11.91l-13.52,21.14h-20.55v-28.49h17.59l33.3-52.07h21.18Z"/>
  <path class="cls-1" d="M100.02,83.18v19.45h-19.06v-10.46c4.15.11,8.08-.87,11.5-2.68,2.94-1.55,5.52-3.71,7.55-6.31Z"/>
  <g>
    <rect class="cls-2" x="143.97" y="22.2" width="182.25" height="80.20"/>
    <polygon class="cls-1" points="182.82 67.15 190.95 67.15 186.84 49.13 182.82 67.15"/>
    <path class="cls-1" d="M143.97,22.01v80.56h182.25V22.01h-182.25ZM210.82,91.63h-14.35l-2.26-10.15h-14.67l-2.26,10.15h-21.46l17.94-58.69h17.38l.5.89,19.11,34.35.08.27v23.18ZM236.89,67.86v23.78h-21.26v-23.78l-4.49-8.08-14.93-26.83h21.43l8.63,19.25,8.62-19.25h21.43l-17.5,31.46-1.92,3.45ZM310.38,91.63h-20.37v-35.55l-7.63,35.55h-12.74l-7.72-35.96v35.96h-20.28v-23.46l19.1-34.34.5-.89h8.07l6.7,32.62,6.71-32.62h27.66v58.69Z"/>
  </g>
</svg>